<svg width="204" height="114" viewBox="0 0 204 114" fill="none" xmlns="http://www.w3.org/2000/svg">
<g clip-path="url(#clip0_70_29602)" filter="url(#filter0_d_70_29602)">
<path d="M11.42 0.00999999H193.36C197.45 0.00999999 200.78 3.33 200.78 7.43V98.94C200.78 103.03 197.46 106.36 193.36 106.36H11.42C7.33 106.36 4 103.04 4 98.94V7.42C4 3.33 7.32 0 11.42 0V0.00999999Z" fill="url(#paint0_linear_70_29602)"/>
<path style="mix-blend-mode:multiply" d="M11.42 0.00999999H193.36C197.45 0.00999999 200.78 3.33 200.78 7.43V98.94C200.78 103.03 197.46 106.36 193.36 106.36H11.42C7.33 106.36 4 103.04 4 98.94V7.42C4 3.33 7.32 0 11.42 0V0.00999999Z" fill="url(#paint1_linear_70_29602)"/>
<path style="mix-blend-mode:overlay" d="M193.27 0.890137H11.5099C7.96971 0.890137 5.09985 3.75999 5.09985 7.30014V99.0601C5.09985 102.6 7.96971 105.47 11.5099 105.47H193.27C196.81 105.47 199.68 102.6 199.68 99.0601V7.30014C199.68 3.75999 196.81 0.890137 193.27 0.890137Z" fill="url(#paint2_linear_70_29602)"/>
<path d="M14.4899 8.62012H190.28C191.32 8.62012 192.16 9.46012 192.16 10.5001V95.8701C192.16 96.9101 191.32 97.7501 190.28 97.7501H14.4899C13.4499 97.7501 12.6099 96.9101 12.6099 95.8701V10.5001C12.6099 9.46012 13.4499 8.62012 14.4899 8.62012Z" fill="#FFDF4A"/>
<path d="M190.29 9.20996H14.5C13.7875 9.20996 13.21 9.78751 13.21 10.5V95.86C13.21 96.5724 13.7875 97.15 14.5 97.15H190.29C191.002 97.15 191.58 96.5724 191.58 95.86V10.5C191.58 9.78751 191.002 9.20996 190.29 9.20996Z" fill="url(#paint3_linear_70_29602)"/>
<path d="M189.73 11.0498H15.05V95.3098H189.73V11.0498Z" fill="#211800"/>
<g opacity="0.7">
<path style="mix-blend-mode:screen" opacity="0.7" d="M195.96 53.14C196.07 82.49 194.23 106.28 191.86 106.29C189.48 106.29 187.46 82.52 187.35 53.17C187.24 23.82 189.08 0.0300195 191.45 0.0200195C193.83 0.0200195 195.85 23.79 195.96 53.14Z" fill="url(#paint4_radial_70_29602)"/>
<path style="mix-blend-mode:screen" d="M194.13 53.1503C194.21 74.3603 193.17 91.5503 191.8 91.5603C190.43 91.5603 189.25 74.3803 189.17 53.1703C189.09 31.9603 190.13 14.7703 191.5 14.7603C192.87 14.7603 194.05 31.9403 194.13 53.1503Z" fill="url(#paint5_radial_70_29602)"/>
</g>
<g opacity="0.7">
<path style="mix-blend-mode:screen" opacity="0.7" d="M17.26 53.14C17.37 82.49 15.53 106.28 13.16 106.29C10.78 106.29 8.75995 82.52 8.64995 53.17C8.53995 23.82 10.38 0.0300195 12.75 0.0200195C15.13 0.0200195 17.15 23.79 17.26 53.14Z" fill="url(#paint6_radial_70_29602)"/>
<path style="mix-blend-mode:screen" d="M15.4299 53.1503C15.5099 74.3603 14.4699 91.5503 13.0999 91.5603C11.7299 91.5603 10.5499 74.3803 10.4699 53.1703C10.3899 31.9603 11.4299 14.7703 12.7999 14.7603C14.1699 14.7603 15.3499 31.9403 15.4299 53.1503Z" fill="url(#paint7_radial_70_29602)"/>
</g>
<g opacity="0.7">
<path style="mix-blend-mode:screen" opacity="0.7" d="M102.406 12.9286C156.143 12.7222 199.698 10.6253 199.689 8.24501C199.68 5.86468 156.11 4.10231 102.373 4.30865C48.6364 4.51498 5.08138 6.61189 5.09052 8.99222C5.09966 11.3725 48.6694 13.1349 102.406 12.9286Z" fill="url(#paint8_radial_70_29602)"/>
<path style="mix-blend-mode:screen" d="M102.4 11.1001C57.1201 11.2701 20.4001 10.3001 20.4001 8.93006C20.4001 7.56006 57.1002 6.31006 102.38 6.14006C147.66 5.97006 184.38 6.94006 184.38 8.31006C184.38 9.68006 147.68 10.9301 102.4 11.1001Z" fill="url(#paint9_radial_70_29602)"/>
</g>
<rect x="14" y="10.0703" width="176" height="85" fill="#016216"/>
</g>
<defs>
<filter id="filter0_d_70_29602" x="0" y="0" width="204" height="114" filterUnits="userSpaceOnUse" color-interpolation-filters="sRGB">
<feFlood flood-opacity="0" result="BackgroundImageFix"/>
<feColorMatrix in="SourceAlpha" type="matrix" values="0 0 0 0 0 0 0 0 0 0 0 0 0 0 0 0 0 0 127 0" result="hardAlpha"/>
<feOffset dy="4"/>
<feGaussianBlur stdDeviation="2"/>
<feComposite in2="hardAlpha" operator="out"/>
<feColorMatrix type="matrix" values="0 0 0 0 0 0 0 0 0 0 0 0 0 0 0 0 0 0 0.25 0"/>
<feBlend mode="normal" in2="BackgroundImageFix" result="effect1_dropShadow_70_29602"/>
<feBlend mode="normal" in="SourceGraphic" in2="effect1_dropShadow_70_29602" result="shape"/>
</filter>
<linearGradient id="paint0_linear_70_29602" x1="102.39" y1="106.35" x2="102.39" y2="0.0100019" gradientUnits="userSpaceOnUse">
<stop stop-color="#FFB52D"/>
<stop offset="0.03" stop-color="#FFA419"/>
<stop offset="0.06" stop-color="#FF980A"/>
<stop offset="0.1" stop-color="#FF9102"/>
<stop offset="0.16" stop-color="#FF8F00"/>
<stop offset="0.21" stop-color="#EE8F00"/>
<stop offset="0.28" stop-color="#DF8F00"/>
<stop offset="0.36" stop-color="#D78F00"/>
<stop offset="0.5" stop-color="#D58F00"/>
<stop offset="0.66" stop-color="#D78F00"/>
<stop offset="0.76" stop-color="#DF8F00"/>
<stop offset="0.84" stop-color="#EE8F00"/>
<stop offset="0.9" stop-color="#FF8F00"/>
<stop offset="0.93" stop-color="#FF9406"/>
<stop offset="0.96" stop-color="#FFA419"/>
<stop offset="1" stop-color="#FFBB34"/>
</linearGradient>
<linearGradient id="paint1_linear_70_29602" x1="4.01" y1="53.18" x2="200.77" y2="53.18" gradientUnits="userSpaceOnUse">
<stop stop-color="#C78F00"/>
<stop offset="0.01" stop-color="#CA9103" stop-opacity="0.93"/>
<stop offset="0.05" stop-color="#D69B0E" stop-opacity="0.72"/>
<stop offset="0.09" stop-color="#E1A318" stop-opacity="0.52"/>
<stop offset="0.14" stop-color="#EAAB21" stop-opacity="0.36"/>
<stop offset="0.19" stop-color="#F2B028" stop-opacity="0.23"/>
<stop offset="0.24" stop-color="#F7B52D" stop-opacity="0.13"/>
<stop offset="0.3" stop-color="#FBB831" stop-opacity="0.05"/>
<stop offset="0.38" stop-color="#FEBA33" stop-opacity="0.01"/>
<stop offset="0.5" stop-color="#FFBB34" stop-opacity="0"/>
<stop offset="0.62" stop-color="#FEBA33" stop-opacity="0.01"/>
<stop offset="0.7" stop-color="#FBB831" stop-opacity="0.05"/>
<stop offset="0.76" stop-color="#F7B52D" stop-opacity="0.13"/>
<stop offset="0.81" stop-color="#F2B028" stop-opacity="0.23"/>
<stop offset="0.86" stop-color="#EAAB21" stop-opacity="0.36"/>
<stop offset="0.91" stop-color="#E1A318" stop-opacity="0.52"/>
<stop offset="0.95" stop-color="#D69B0E" stop-opacity="0.72"/>
<stop offset="0.99" stop-color="#CA9103" stop-opacity="0.93"/>
<stop offset="1" stop-color="#C78F00"/>
</linearGradient>
<linearGradient id="paint2_linear_70_29602" x1="102.39" y1="105.47" x2="102.39" y2="0.890137" gradientUnits="userSpaceOnUse">
<stop offset="0.5" stop-color="#FFFF4A" stop-opacity="0"/>
<stop offset="0.56" stop-color="#FFFF4A" stop-opacity="0.02"/>
<stop offset="0.62" stop-color="#FFFF4A" stop-opacity="0.07"/>
<stop offset="0.69" stop-color="#FFFF4A" stop-opacity="0.15"/>
<stop offset="0.75" stop-color="#FFFF4A" stop-opacity="0.26"/>
<stop offset="0.82" stop-color="#FFFF4A" stop-opacity="0.41"/>
<stop offset="0.88" stop-color="#FFFF4A" stop-opacity="0.59"/>
<stop offset="0.95" stop-color="#FFFF4A" stop-opacity="0.8"/>
<stop offset="1" stop-color="#FFFF4A"/>
</linearGradient>
<linearGradient id="paint3_linear_70_29602" x1="13.21" y1="53.18" x2="191.57" y2="53.18" gradientUnits="userSpaceOnUse">
<stop stop-color="#FFBB34"/>
<stop offset="0.02" stop-color="#FFAE25"/>
<stop offset="0.04" stop-color="#FFA014"/>
<stop offset="0.08" stop-color="#FF9608"/>
<stop offset="0.13" stop-color="#FF9001"/>
<stop offset="0.26" stop-color="#FF8F00"/>
<stop offset="0.5" stop-color="#FFBB34"/>
<stop offset="0.75" stop-color="#FF8F00"/>
<stop offset="0.88" stop-color="#FF9001"/>
<stop offset="0.92" stop-color="#FF9608"/>
<stop offset="0.96" stop-color="#FFA014"/>
<stop offset="0.98" stop-color="#FFAE25"/>
<stop offset="1" stop-color="#FFBB34"/>
</linearGradient>
<radialGradient id="paint4_radial_70_29602" cx="0" cy="0" r="1" gradientUnits="userSpaceOnUse" gradientTransform="translate(193.964 53.4994) rotate(-0.22) scale(4.2328 53.0728)">
<stop stop-color="white"/>
<stop offset="0.26" stop-color="white" stop-opacity="0.69"/>
<stop offset="0.52" stop-color="white" stop-opacity="0.4"/>
<stop offset="0.75" stop-color="white" stop-opacity="0.18"/>
<stop offset="0.91" stop-color="white" stop-opacity="0.05"/>
<stop offset="1" stop-color="white" stop-opacity="0"/>
</radialGradient>
<radialGradient id="paint5_radial_70_29602" cx="0" cy="0" r="1" gradientUnits="userSpaceOnUse" gradientTransform="translate(193.936 52.825) rotate(-0.22) scale(2.4362 38.417)">
<stop stop-color="white"/>
<stop offset="0.26" stop-color="white" stop-opacity="0.69"/>
<stop offset="0.52" stop-color="white" stop-opacity="0.4"/>
<stop offset="0.75" stop-color="white" stop-opacity="0.18"/>
<stop offset="0.91" stop-color="white" stop-opacity="0.05"/>
<stop offset="1" stop-color="white" stop-opacity="0"/>
</radialGradient>
<radialGradient id="paint6_radial_70_29602" cx="0" cy="0" r="1" gradientUnits="userSpaceOnUse" gradientTransform="translate(18.364 53.5216) rotate(-0.22) scale(4.2328 53.0728)">
<stop stop-color="white"/>
<stop offset="0.26" stop-color="white" stop-opacity="0.69"/>
<stop offset="0.52" stop-color="white" stop-opacity="0.4"/>
<stop offset="0.75" stop-color="white" stop-opacity="0.18"/>
<stop offset="0.91" stop-color="white" stop-opacity="0.05"/>
<stop offset="1" stop-color="white" stop-opacity="0"/>
</radialGradient>
<radialGradient id="paint7_radial_70_29602" cx="0" cy="0" r="1" gradientUnits="userSpaceOnUse" gradientTransform="translate(18.3387 52.8022) rotate(-0.22) scale(2.4362 38.417)">
<stop stop-color="white"/>
<stop offset="0.26" stop-color="white" stop-opacity="0.69"/>
<stop offset="0.52" stop-color="white" stop-opacity="0.4"/>
<stop offset="0.75" stop-color="white" stop-opacity="0.18"/>
<stop offset="0.91" stop-color="white" stop-opacity="0.05"/>
<stop offset="1" stop-color="white" stop-opacity="0"/>
</radialGradient>
<radialGradient id="paint8_radial_70_29602" cx="0" cy="0" r="1" gradientUnits="userSpaceOnUse" gradientTransform="translate(102.82 6.62355) rotate(89.78) scale(4.2328 97.3544)">
<stop stop-color="white"/>
<stop offset="0.26" stop-color="white" stop-opacity="0.69"/>
<stop offset="0.52" stop-color="white" stop-opacity="0.4"/>
<stop offset="0.75" stop-color="white" stop-opacity="0.18"/>
<stop offset="0.91" stop-color="white" stop-opacity="0.05"/>
<stop offset="1" stop-color="white" stop-opacity="0"/>
</radialGradient>
<radialGradient id="paint9_radial_70_29602" cx="0" cy="0" r="1" gradientUnits="userSpaceOnUse" gradientTransform="translate(102.709 6.61328) rotate(89.78) scale(2.4362 81.9875)">
<stop stop-color="white"/>
<stop offset="0.26" stop-color="white" stop-opacity="0.69"/>
<stop offset="0.52" stop-color="white" stop-opacity="0.4"/>
<stop offset="0.75" stop-color="white" stop-opacity="0.18"/>
<stop offset="0.91" stop-color="white" stop-opacity="0.05"/>
<stop offset="1" stop-color="white" stop-opacity="0"/>
</radialGradient>
<clipPath id="clip0_70_29602">
<rect width="196" height="106" fill="white" transform="translate(4)"/>
</clipPath>
</defs>
</svg>
